:SAMPLES-PER-SECOND 30
:FULLY-SPECIFIED
:DEGREES
1303
root  68.3596 37.603 -24.5913 31.6906 -4.58734 3.95311
RightUpLeg  -61.6828 -9.53802 0.143715
RightLeg  26.7473 -0.937065 -0.747972
RightFoot  5.68981 0.642299 -4.01682
RightToes  0.00048216 0.542163 -0.142577
Spine  72.1528 -3.92711 5.35958
Spine1  8.9592 1.82974 -5.29009
HEad  -39.5283 -10.7731 8.0812
LeftShoulder1  6.15096 -25.6268 -14.0854
LeftArm  -75.6515 -78.9643 5.55152
LeftForeArm  20.4907 -28.4909 -5.06008
LeftHand  -0.25398 0.0180481 5.50724
RightShoulder  1.05855 10.0131 -0.581069
RightArm  -84.645 71.1848 -7.07103
RightForeArm  -16.078 21.172 4.83588
RightHand  -2.29985 9.37101 -18.395
LeftUpLeg  -60.4739 23.7334 -23.7165
LeftLeg  28.5168 -2.53131 -1.14362
LeftFoot  -1.67211 -0.450212 5.43737
LeftToes  1.06245e-005 4.65856e-005 -8.18504e-006
1304
root  68.7972 37.8145 -24.7235 29.5857 -6.69269 3.49283
RightUpLeg  -58.6785 -9.98763 0.521431
RightLeg  23.9453 1.85382 0.67895
RightFoot  7.4047 0.689312 -3.85835
RightToes  0.00048216 0.542163 -0.142577
Spine  70.5879 -4.01732 6.36456
Spine1  10.515 2.8582 -6.06462
HEad  -40.1944 -12.8163 10.1819
LeftShoulder1  6.07712 -27.5331 -12.3272
LeftArm  -52.2372 -74.9096 -20.6338
LeftForeArm  23.3866 -34.6302 -6.38293
LeftHand  -0.25398 0.0180481 5.50724
RightShoulder  1.54742 9.37285 4.06045
RightArm  -67.517 69.4557 6.64684
RightForeArm  -15.3051 28.6208 7.03366
RightHand  -2.24638 8.8344 -18.6295
LeftUpLeg  -58.0728 25.4018 -23.4913
LeftLeg  27.5309 -1.71048 -0.622343
LeftFoot  -1.73669 -0.448796 5.46304
LeftToes  1.06245e-005 4.65856e-005 -8.18504e-006
1305
root  69.1725 38.0294 -24.845 26.9966 -8.96698 2.85657
RightUpLeg  -55.382 -11.584 1.97639
RightLeg  21.501 5.84018 2.31098
RightFoot  8.91885 0.449746 -2.20898
RightToes  0.00048216 0.542163 -0.142577
Spine  69.8203 -3.72785 5.75449
Spine1  10.696 2.4008 -4.96309
HEad  -39.931 -12.3739 10.2295
LeftShoulder1  7.14876 -26.597 -16.8836
LeftArm  -36.5943 -69.3976 -32.5507
LeftForeArm  23.4805 -40.2445 -7.96802
LeftHand  -0.25398 0.0180481 5.50724
RightShoulder  2.02117 11.347 5.88136
RightArm  -51.4316 65.9562 21.3284
RightForeArm  -13.7157 35.4516 8.74731
RightHand  -2.33501 8.51629 -19.7355
LeftUpLeg  -55.1109 27.4776 -22.6991
LeftLeg  26.61 -0.771792 -0.0766882
LeftFoot  -2.02251 -0.442883 5.58049
LeftToes  1.06245e-005 4.65856e-005 -8.18504e-006
1306
root  69.4803 38.2258 -24.94 24.2151 -11.4849 2.46051
RightUpLeg  -52.347 -15.8013 4.55393
RightLeg  19.3636 11.839 4.38419
RightFoot  8.77214 -1.00479 6.11411
RightToes  0.00048216 0.542163 -0.142577
Spine  68.5945 -3.73692 5.03937
Spine1  11.1598 2.10254 -5.22557
HEad  -40.0127 -11.9612 10.9892
LeftShoulder1  7.6032 -25.9584 -19.1098
LeftArm  -27.4806 -62.6528 -39.3461
LeftForeArm  24.2355 -45.4743 -9.67948
LeftHand  -0.25398 0.0180481 5.50724
RightShoulder  2.7127 12.5077 9.64071
RightArm  -39.0738 61.9344 30.5706
RightForeArm  -13.5955 40.9955 10.5402
RightHand  -2.67396 8.91426 -21.8821
LeftUpLeg  -51.7633 29.6394 -21.7473
LeftLeg  25.6184 0.412043 0.562391
LeftFoot  -2.46743 -0.41495 5.53371
LeftToes  1.06245e-005 4.65856e-005 -8.18504e-006
1307
root  69.6655 38.3331 -24.9812 21.2355 -14.0349 2.82837
RightUpLeg  -50.2109 -22.927 7.51463
RightLeg  18.127 19.3258 6.79069
RightFoot  6.86059 -3.39838 21.3262
RightToes  0.00048216 0.542163 -0.142577
Spine  67.0904 -3.16123 3.4344
Spine1  11.0144 1.74713 -4.73251
HEad  -39.9844 -11.743 11.1386
LeftShoulder1  8.25345 -25.4357 -22.0102
LeftArm  -20.7859 -55.3509 -43.2377
LeftForeArm  25.2474 -50.3778 -11.6119
LeftHand  -0.25398 0.0180481 5.50724
RightShoulder  3.33554 13.089 13.13
RightArm  -29.1641 56.7345 36.4645
RightForeArm  -13.7625 46.2556 12.6188
RightHand  -2.96903 9.21833 -23.7176
LeftUpLeg  -48.3542 31.7801 -21.0921
LeftLeg  25.1306 1.44468 1.09442
LeftFoot  -3.0268 -0.346763 5.0154
LeftToes  1.06245e-005 4.65856e-005 -8.18504e-006
1308
root  69.7049 38.4012 -24.9995 18.0052 -16.6443 3.61876
RightUpLeg  -48.8441 -30.0559 9.31154
RightLeg  18.8705 24.2175 8.72223
RightFoot  5.03072 -4.97693 33.8444
RightToes  0.00048216 0.542163 -0.142577
Spine  65.6608 -2.4132 1.50085
Spine1  10.3681 1.41856 -4.49493
HEad  -39.724 -11.5414 11.1091
LeftShoulder1  8.74423 -24.7196 -24.6132
LeftArm  -15.3203 -47.9702 -45.6753
LeftForeArm  26.5538 -54.9235 -13.8122
LeftHand  -0.25398 0.0180481 5.50724
RightShoulder  3.95804 13.4739 16.647
RightArm  -22.1823 50.4294 39.4041
RightForeArm  -12.6329 51.6855 15.2149
RightHand  -3.07498 9.04326 -24.7973
LeftUpLeg  -44.8844 34.4796 -20.6035
LeftLeg  24.8549 1.88486 1.32833
LeftFoot  -3.54718 -0.276598 4.37478
LeftToes  1.06245e-005 4.65856e-005 -8.18504e-006
1309
root  69.6499 38.571 -25.0375 14.9056 -19.4576 3.95473
RightUpLeg  -46.8176 -33.4822 7.893
RightLeg  21.5254 22.3483 9.18449
RightFoot  3.94662 -4.82694 35.0502
RightToes  0.00048216 0.542163 -0.142577
Spine  64.365 -1.65521 0.396901
Spine1  9.86635 1.28546 -4.31345
HEad  -39.3282 -11.2807 11.0126
LeftShoulder1  9.15078 -23.9217 -27.1061
LeftArm  -10.6904 -41.0643 -46.7198
LeftForeArm  28.1236 -58.9637 -16.2637
LeftHand  -0.25398 0.0180481 5.50724
RightShoulder  4.50462 13.5771 19.9506
RightArm  -17.7501 43.6451 40.5669
RightForeArm  -10.1781 56.9905 18.4548
RightHand  -3.17832 8.94435 -25.7523
LeftUpLeg  -40.7429 37.3613 -19.0093
LeftLeg  23.6358 2.62246 1.29473
LeftFoot  -3.53883 -0.244841 3.90418
LeftToes  1.06245e-005 4.65856e-005 -8.18504e-006
1310
root  69.5013 38.8132 -25.0568 12.3209 -22.1723 3.79344
RightUpLeg  -43.4793 -33.4175 3.99744
RightLeg  23.7678 15.9443 7.35618
RightFoot  2.57824 -3.43374 27.6896
RightToes  0.00048216 0.542163 -0.142577
Spine  62.9769 -1.16705 0.254454
Spine1  9.44276 1.27078 -4.06815
HEad  -38.7193 -10.8947 11.0066
LeftShoulder1  9.48076 -23.0857 -29.468
LeftArm  -6.92353 -34.7502 -46.7858
LeftForeArm  30.1804 -62.5677 -19.0195
LeftHand  -0.25398 0.0180481 5.50724
RightShoulder  4.96913 13.4731 23.0394
RightArm  -14.8497 36.7201 40.6888
RightForeArm  -6.94636 62.0383 22.6919
RightHand  -3.31028 9.0188 -26.6396
LeftUpLeg  -35.2415 38.0407 -14.7653
LeftLeg  21.7686 5.9 1.0929
LeftFoot  -3.00903 -0.208259 3.11361
LeftToes  1.06245e-005 4.65856e-005 -8.18504e-006
1311
root  69.207 39.0223 -25.0158 10.2694 -24.483 3.61473
RightUpLeg  -39.4644 -32.2013 -0.211323
RightLeg  23.8078 9.67692 4.4579
RightFoot  0.681022 -2.07699 19.6153
RightToes  0.00048216 0.542163 -0.142577
Spine  61.1941 -0.850952 0.401963
Spine1  8.9563 1.31256 -3.70283
HEad  -37.9597 -10.663 11.1647
LeftShoulder1  9.71966 -22.3746 -31.4088
LeftArm  -4.12696 -28.9534 -46.5764
LeftForeArm  33.2973 -65.939 -22.2831
LeftHand  -0.25398 0.0180481 5.50724
RightShoulder  5.40879 13.2527 26.1913
RightArm  -12.8495 29.8405 39.5753
RightForeArm  -2.4987 66.8936 28.649
RightHand  -3.34749 8.85324 -27.2179
LeftUpLeg  -29.6098 36.5946 -9.64233
LeftLeg  20.1646 10.6628 0.866646
LeftFoot  -2.42719 -0.119954 1.72692
LeftToes  1.06245e-005 4.65856e-005 -8.18504e-006
1312
root  68.7422 39.1736 -24.9341 8.57544 -26.5182 3.61029
RightUpLeg  -35.2995 -31.3698 -3.63878
RightLeg  21.6488 5.52291 2.20576
RightFoot  -1.17945 -1.28456 14.3186
RightToes  0.00048216 0.542163 -0.142577
Spine  58.9543 -0.614281 0.381899
Spine1  8.71449 1.25501 -3.3596
HEad  -37.419 -10.5245 11.5889
LeftShoulder1  9.82023 -21.6008 -32.987
LeftArm  -1.96919 -23.7435 -45.9881
LeftForeArm  37.9616 -69.2838 -26.5385
LeftHand  -0.25398 0.0180481 5.50724
RightShoulder  5.90652 13.2064 29.3501
RightArm  -11.5466 23.3872 37.6884
RightForeArm  4.15216 71.1213 36.7112
RightHand  -3.38926 8.66325 -27.8864
LeftUpLeg  -24.6679 34.3034 -5.0182
LeftLeg  18.9281 15.4632 0.577672
LeftFoot  -2.00361 -0.00955699 0.263154
LeftToes  1.06245e-005 4.65856e-005 -8.18504e-006
1313
root  68.1269 39.2653 -24.8461 7.10535 -28.6007 3.71381
RightUpLeg  -31.5736 -31.2064 -6.00333
RightLeg  18.688 2.47109 0.720414
RightFoot  -2.40349 -0.824934 10.3456
RightToes  0.00048216 0.542163 -0.142577
Spine  56.516 -0.402618 0.2476
Spine1  8.67068 1.19203 -3.19569
HEad  -37.3547 -10.6212 12.4447
LeftShoulder1  9.87091 -20.7596 -34.5504
LeftArm  0.184565 -19.1823 -44.8353
LeftForeArm  43.9974 -72.4249 -32.1217
LeftHand  -0.25398 0.0180481 5.50724
RightShoulder  6.35363 13.2313 32.0118
RightArm  -10.7829 17.2992 36.0563
RightForeArm  13.5337 74.3447 46.8126
RightHand  -3.48578 8.65045 -28.6654
LeftUpLeg  -20.5781 32.5761 -1.27484
LeftLeg  18.0168 19.2715 0.327496
LeftFoot  -1.59622 0.0832603 -0.864228
LeftToes  1.06245e-005 4.65856e-005 -8.18504e-006
1314
root  67.3961 39.2786 -24.7742 5.88342 -30.9886 3.95195
RightUpLeg  -28.9694 -31.6914 -7.33144
RightLeg  16.4717 -0.862322 -0.396212
RightFoot  -2.75695 -0.58688 7.57804
RightToes  0.00048216 0.542163 -0.142577
Spine  54.0472 -0.0581317 0.111403
Spine1  8.38899 1.41607 -3.33868
HEad  -37.5436 -11.3891 13.8195
LeftShoulder1  9.92532 -20.2203 -35.6929
LeftArm  2.41183 -15.0728 -43.9615
LeftForeArm  50.5383 -74.9094 -38.6234
LeftHand  -0.25398 0.0180481 5.50724
RightShoulder  6.57262 12.9535 33.9773
RightArm  -10.2906 11.196 34.9294
RightForeArm  26.5303 76.7406 60.0992
RightHand  -3.40032 8.23011 -28.8071
LeftUpLeg  -17.4376 32.1976 1.5488
LeftLeg  17.7502 21.7944 0.472301
LeftFoot  -1.18008 0.193705 -2.0992
LeftToes  1.06245e-005 4.65856e-005 -8.18504e-006
1315
root  66.5504 39.2509 -24.7372 4.84607 -33.5878 4.23407
RightUpLeg  -27.4354 -32.9029 -7.63067
RightLeg  15.5984 -4.53803 -1.17166
RightFoot  -2.13337 -0.548898 6.62074
RightToes  0.00048216 0.542163 -0.142577
Spine  51.6794 0.455332 -0.208474
Spine1  7.869 1.6342 -3.1203
HEad  -37.4968 -12.3143 15.0306
LeftShoulder1  9.954 -19.85 -36.4674
LeftArm  4.12736 -11.0886 -43.4389
LeftForeArm  57.8215 -76.8823 -46.3831
LeftHand  -0.25398 0.0180481 5.50724
RightShoulder  6.68632 12.7085 35.2647
RightArm  -9.61806 5.21159 34.1248
RightForeArm  43.7902 78.1904 78.1834
RightHand  -3.19102 7.47657 -28.6342
LeftUpLeg  -14.6364 32.6137 4.07867
LeftLeg  17.7245 23.6283 0.862008
LeftFoot  -0.80963 0.348388 -3.72962
LeftToes  1.06245e-005 4.65856e-005 -8.18504e-006
